<svg id="Capa_1" enable-background="new 0 0 512 512" height="512" viewBox="0 0 512 512" width="512" xmlns="http://www.w3.org/2000/svg"><g><path d="m319.164 5.361c-2.695-2.974-6.46-4.746-10.459-4.922-4.043-.308-7.896 1.26-10.854 3.984l-15.601 14.444-16.055-14.868c-2.885-2.666-6.54-3.999-10.195-3.999s-7.31 1.333-10.195 3.999l-16.055 14.868-15.732-14.56c-2.915-2.695-6.68-4.189-10.781-3.97-3.984.161-7.734 1.89-10.43 4.819-26.968 29.268-41.792 61.191-41.763 100.844l44.956 30h60 60.22l44.736-30c.029-38.979-14.81-70.858-41.792-100.639z" fill="#c86e59"/><path d="m360.956 106c.029-38.979-14.81-70.858-41.792-100.639-2.695-2.974-6.46-4.746-10.459-4.922-4.043-.308-7.896 1.26-10.854 3.984l-15.601 14.444-16.055-14.868c-2.885-2.666-6.54-3.999-10.195-3.999v136h60.22z" fill="#a34f3e"/><path d="m360.956 106h-74.736c-11.618 0-22.119 4.543-30.11 11.796-.035-.031-.075-.053-.11-.084-7.974-7.2-18.431-11.711-30-11.711h-74.956l-.044 119.999c0 16.15 3.968 31.28 10.512 44.963h94.488 94.488c6.544-13.683 10.512-28.813 10.512-44.963z" fill="#fdc"/><path d="m361 226-.044-120h-74.736c-11.618 0-22.119 4.543-30.11 11.796-.035-.031-.075-.053-.11-.084v153.252h94.488c6.544-13.684 10.512-28.814 10.512-44.964z" fill="#ffccb3"/><path d="m321.413 343.942h-65.413-65.413c-5.361 4.03-11.981 7.112-18.933 9.825l22.886 106.776 55.727 51.457h5.733 5.722l59.733-59.46 18.895-98.786c-6.977-2.72-13.605-5.806-18.937-9.812z" fill="#f2f2fc"/><path d="m321.455 452.54 18.895-98.786c-6.976-2.721-13.605-5.806-18.937-9.813h-65.413v168.059h5.722z" fill="#e2d9fb"/><path d="m301 307.665h-45-45c-2.961 17.51-9.977 28.433-20.413 36.277 19.708 10.97 41.997 17.058 65.413 17.058s45.705-6.088 65.413-17.058c-10.436-7.844-17.452-18.767-20.413-36.277z" fill="#ffccb3"/><path d="m301 307.665h-45v53.335c23.416 0 45.705-6.088 65.413-17.058-10.436-7.844-17.452-18.767-20.413-36.277z" fill="#fb9"/><path d="m373.437 363.666c-10.714-2.64-22.41-5.748-33.087-9.911l-78.628 158.245h129.278l15-25.625v-76l-15-42.197c-5.938-1.643-11.838-3.104-17.563-4.512z" fill="#32393f"/><path d="m171.654 353.767c-10.693 4.173-22.379 7.258-33.091 9.899-5.726 1.408-11.625 2.869-17.563 4.512l-15 36.572v74.75l15 32.5h129.267z" fill="#474f54"/><path d="m31 497c0 8.291 6.709 15 15 15h75v-143.822c-43.77 12.103-90 35.619-90 128.822z" fill="#f2f2fc"/><path d="m391 368.178v143.822h75c8.291 0 15-6.709 15-15 0-93.203-46.23-116.719-90-128.822z" fill="#e2d9fb"/><path d="m256 211c-41.799 0-77.591 24.608-94.488 59.963 16.101 33.662 51.969 60.037 94.488 60.037 42.367 0 78.375-26.347 94.488-60.037-16.897-35.355-52.689-59.963-94.488-59.963z" fill="#c86e59"/><path d="m350.488 270.963c-16.897-35.355-52.689-59.963-94.488-59.963v120c42.367 0 78.375-26.347 94.488-60.037z" fill="#a34f3e"/></g></svg>